<?xml version="1.0" encoding="UTF-8" standalone="no"?>
<!-- Generator: Adobe Illustrator 16.0.0, SVG Export Plug-In . SVG Version: 6.00 Build 0)  -->

<svg
   xmlns:dc="http://purl.org/dc/elements/1.1/"
   xmlns:cc="http://creativecommons.org/ns#"
   xmlns:rdf="http://www.w3.org/1999/02/22-rdf-syntax-ns#"
   xmlns:svg="http://www.w3.org/2000/svg"
   xmlns="http://www.w3.org/2000/svg"
   xmlns:sodipodi="http://sodipodi.sourceforge.net/DTD/sodipodi-0.dtd"
   xmlns:inkscape="http://www.inkscape.org/namespaces/inkscape"
   version="1.1"
   id="Capa_1"
   x="0px"
   y="0px"
   width="502.587px"
   height="502.588px"
   viewBox="0 0 502.587 502.588"
   style="enable-background:new 0 0 502.587 502.588;"
   xml:space="preserve"
   sodipodi:docname="app.svg"
   inkscape:version="0.92.1 r15371"><metadata
     id="metadata41"><rdf:RDF><cc:Work
         rdf:about=""><dc:format>image/svg+xml</dc:format><dc:type
           rdf:resource="http://purl.org/dc/dcmitype/StillImage" /></cc:Work></rdf:RDF></metadata><defs
     id="defs39" /><sodipodi:namedview
     pagecolor="#ffffff"
     bordercolor="#666666"
     borderopacity="1"
     objecttolerance="10"
     gridtolerance="10"
     guidetolerance="10"
     inkscape:pageopacity="0"
     inkscape:pageshadow="2"
     inkscape:window-width="1920"
     inkscape:window-height="1016"
     id="namedview37"
     showgrid="false"
     inkscape:zoom="0.4695695"
     inkscape:cx="255.55272"
     inkscape:cy="251.29401"
     inkscape:window-x="0"
     inkscape:window-y="27"
     inkscape:window-maximized="1"
     inkscape:current-layer="Capa_1" /><g
     id="g4"><path
       d="M347.102,173.479c0,54.353-44.061,98.414-98.408,98.414c-54.348,0-98.411-44.061-98.411-98.414   c0-54.35,44.058-98.411,98.407-98.411C303.038,75.069,347.102,119.129,347.102,173.479z M446.862,463.073   c-2.111,2.179-5.449,2.633-8.063,1.106L367,422.274c-0.741,8.138-1.812,20.062-2.919,31.974   c-0.979,10.599-1.975,21.192-2.745,29.144c-0.396,3.994-0.729,7.327-0.984,9.657c-0.457,4.188-1.023,9.402-6.892,9.538   c-0.027,0-0.061,0-0.088,0c-1.739,0.024-3.414-0.645-4.667-1.854c-1.034-1.002-1.722-2.45-1.954-3.912   c-2.353-8.11-39.142-92.681-69.193-160.997l-5.865,4.409c-2.091,1.56-4.373,2.9-6.764,3.945   c-10.642,4.651-23.201,3.427-32.754-3.185l-10.411-7.206c-28.932,67.803-63.311,149.265-65.524,157.239   c-0.214,1.454-0.882,2.909-1.918,3.922c-1.237,1.226-2.914,1.915-4.643,1.915c-0.03,0-0.063,0-0.089-0.005   c-5.875-0.083-6.49-5.281-6.994-9.46c-0.282-2.325-0.646-5.659-1.081-9.654c-0.864-7.935-1.973-18.522-3.061-29.104   c-1.232-11.906-2.444-23.808-3.268-31.94L63.85,459.364c-2.61,1.56-5.951,1.14-8.08-1.018c-2.139-2.162-2.533-5.5-0.951-8.092   l87.54-143.614c-12.159-3.541-21.455-13.637-23.771-26.369l-8.394-46.204l-28.216-37.545c-8.758-11.645-9.062-27.524-0.764-39.511   l26.735-38.616l6.588-46.499c1.639-11.503,9.264-21.549,19.915-26.194c2.395-1.053,4.914-1.817,7.487-2.288l46.21-8.399   l37.543-28.21c2.096-1.577,4.37-2.903,6.758-3.945c10.807-4.731,23.051-3.541,32.753,3.176l38.604,26.728l46.501,6.599   c14.436,2.046,25.876,13.061,28.486,27.401l8.395,46.206l28.216,37.538c8.755,11.647,9.054,27.527,0.766,39.518l-26.736,38.614   l-6.588,46.495c-1.638,11.511-9.259,21.547-19.914,26.203c-2.39,1.051-4.915,1.812-7.48,2.282l-2.003,0.361l94.284,150.985   C449.341,457.544,448.982,460.891,446.862,463.073z M361.977,173.479c0-62.564-50.726-113.287-113.288-113.287   c-62.567,0-113.29,50.722-113.29,113.287c0,62.567,50.723,113.292,113.29,113.292C311.251,286.771,361.977,236.047,361.977,173.479   z"
       id="path2" /></g><g
     id="g6" /><g
     id="g8" /><g
     id="g10" /><g
     id="g12" /><g
     id="g14" /><g
     id="g16" /><g
     id="g18" /><g
     id="g20" /><g
     id="g22" /><g
     id="g24" /><g
     id="g26" /><g
     id="g28" /><g
     id="g30" /><g
     id="g32" /><g
     id="g34" /><path
     style="fill:#ffffff;fill-opacity:1;stroke-width:2.1296103"
     d="m 224.71344,267.40818 c -72.46417,-18.91635 -97.32,-108.54146 -44.91951,-161.97065 21.9055,-22.335544 53.64288,-32.943189 83.49754,-27.907549 42.0434,7.091538 74.18739,39.423479 81.47151,81.947899 6.75525,39.43687 -15.56428,82.01222 -52.48585,100.11872 -24.55267,12.04074 -43.1333,14.189 -67.56369,7.81158 z"
     id="path3713"
     inkscape:connector-curvature="0" /><path
     style="fill:#ffffff;fill-opacity:1;stroke-width:2.1296103"
     d="m 348.72021,497.58343 c -1.07963,-2.04975 -5.32347,-11.87258 -9.43074,-21.82851 -8.6416,-20.94699 -58.80678,-136.3353 -60.3752,-138.87307 -0.57953,-0.93767 -5.35433,0.81549 -10.61068,3.89593 -11.89379,6.97021 -24.43973,6.20087 -37.26281,-2.28505 -4.77117,-3.1574 -9.15277,-5.26284 -9.73687,-4.67873 -1.56146,1.56145 -56.73324,132.20763 -62.41472,147.79735 -3.50838,9.62684 -5.91558,13.31007 -8.69888,13.31007 -2.1165,0 -4.39257,-0.88083 -5.05792,-1.95739 -0.66535,-1.07656 -2.7154,-17.1285 -4.55567,-35.67097 -1.84026,-18.54248 -3.98783,-35.40697 -4.77237,-37.47665 -1.23039,-3.24582 -6.36573,-0.83095 -37.36206,17.56928 -19.764587,11.73279 -37.284087,21.33235 -38.932224,21.33235 -1.648137,0 -3.477922,-1.25427 -4.066189,-2.78727 -0.588267,-1.533 19.012696,-35.76634 43.5577,-76.07409 l 44.627273,-73.28683 -7.70121,-4.31987 c -11.1,-6.22636 -14.9492,-14.5009 -19.98076,-42.95209 L 111.48079,234.04416 96.647071,214.13972 C 79.146305,190.65654 74.93946,181.69176 76.604775,171.42964 c 0.692683,-4.26851 7.983231,-17.49231 17.080277,-30.98068 l 15.871738,-23.53336 3.3057,-25.216564 c 5.20018,-39.667986 10.07005,-44.457109 52.39476,-51.525988 22.18411,-3.705089 22.51346,-3.847961 41.65584,-18.069911 37.35512,-27.7532174 39.24314,-27.7913549 77.82221,-1.571976 l 20.45121,13.899178 22.90708,2.714787 c 24.69209,2.926329 37.562,7.86711 44.16906,16.956559 2.2234,3.058768 6.13232,17.075398 9.16488,32.863483 l 5.28793,27.529872 14.62508,19.31197 c 18.95527,25.02988 20.14517,27.50749 18.98911,39.53879 -0.78112,8.12925 -3.86469,14.24678 -16.32344,32.38424 -15.19866,22.12622 -15.39261,22.58362 -18.4178,43.43959 -4.90335,33.80397 -5.1435,34.66167 -11.84085,42.28953 -3.51462,4.00294 -9.7461,8.38559 -13.84771,9.73926 -4.1016,1.35364 -7.16826,3.15546 -6.81479,4.00403 0.35349,0.84856 22.02,35.73993 48.1478,77.53636 26.12781,41.79643 46.91481,76.94861 46.19334,78.11598 -2.74526,4.44189 -9.69086,1.5236 -43.09938,-18.10882 -18.93517,-11.12722 -35.43079,-20.2313 -36.65691,-20.2313 -1.2261,0 -2.2326,1.67707 -2.23665,3.72682 -0.017,8.45368 -6.59553,71.56261 -7.63552,73.24534 -1.90952,3.08966 -7.01102,2.01996 -9.07753,-1.9034 z m -63.2208,-216.42935 c 30.53096,-11.08215 51.28184,-29.41513 65.06819,-57.48642 16.44109,-33.47677 16.47927,-66.50144 0.11607,-100.29989 -19.46862,-40.212326 -57.53628,-63.526306 -103.47286,-63.370389 -32.9501,0.111837 -60.55877,12.428629 -82.698,36.89327 -20.12675,22.240779 -29.01955,45.671199 -29.01955,76.459619 0,30.63611 9.00609,54.7943 28.32316,75.97478 31.51794,34.55834 79.55037,47.12234 121.68299,31.82903 z"
     id="path3715"
     inkscape:connector-curvature="0" /></svg>